<svg version="1.0" xmlns="http://www.w3.org/2000/svg" width="933.333" height="933.333" viewBox="0 0 700 700"><path d="M86 23.4v23.3l-6.7 5.5-6.8 5.4v315.9c0 314.2 0 316 2 319.4 1.1 1.8 3.6 4.2 5.5 5.2 3.4 1.8 11.9 1.9 270 1.9 251.7 0 266.7-.1 270-1.8 1.9-.9 4.3-3.3 5.5-5.2 2-3.5 2-3.6 2-319.5V57.6l-6.7-5.4-6.8-5.5V0H86v23.4zm147.3 163.3c1.3 1.6 1.6 7.4 1.9 44.8.4 40 .6 43.4 2.4 48.6 6.3 17.4 19.6 28.8 36 31 9 1.1 143.8 1.1 152.8 0 16.4-2.2 29.7-13.6 36-31 1.8-5.2 2-8.6 2.4-48.6.3-37.4.6-43.2 1.9-44.8 2-2.2 6.1-2.2 8.5 0 1.7 1.5 1.8 4.2 1.8 45.3 0 39.9-.2 44.3-1.9 51.2-4.7 18.4-16.5 32-33.9 39l-5.7 2.3-81.8.3c-53 .2-83.8-.1-87.4-.8-11.6-2.1-23.9-9.8-31.1-19.4-5.4-7.2-8-12.5-10.3-21.3-1.7-7-1.9-11.4-1.9-51.1 0-39.1.2-43.7 1.7-45.4 2.1-2.3 6.5-2.3 8.6-.1zm355.8 209.4c-23.5 11.7-47.9 36.6-60.5 61.7l-3.7 7.4-4.2-.7c-2.3-.4-4.3-.9-4.5-1-.6-.5 7.7-14.7 12.6-21.5 2.5-3.6 9.3-11.3 15-17.2 14.9-15.3 31-26.3 45.2-30.9 8.8-2.9 8.8-2.2.1 2.2zm-199-.6c23.6 9.3 53.3 37.5 66.2 63.1l2.6 5.2-4.5.7c-2.5.3-4.7.5-4.9.3-.1-.2-2.1-3.9-4.3-8.3-11.3-22.5-33.8-45.9-56.7-59-8.8-5-8.2-5.8 1.6-2zm125 74.6c5.7.5 13.6 1.7 17.4 2.6 7.3 1.6 21.5 7 21.4 8.1 0 .4-2.8 2-6.2 3.6-4.3 2-8.5 5.2-13.7 10.5-20.3 20.6-26.2 53.6-13.1 73.8 6.6 10.3 14.3 14.5 26.2 14.6 6.7.1 8.5-.4 15-3.5 4.1-1.9 9.2-5 11.2-6.8l3.7-3.2v3c0 9.3-12.4 38.7-23.1 54.7-5.6 8.3-22.8 25.3-31.7 31.4-26 17.6-50.3 15.9-76.8-5.3-8.3-6.6-18.5-17.5-24.6-26.1-8.9-12.5-21.7-42.1-23.1-53.3-.6-4.7-.7-4.8 6.5.9 6.8 5.3 14.8 8.1 23.3 8.2 31 .4 43.5-40.5 23.2-75.8-5.3-9.3-15.8-19.5-23.6-23.2-3.3-1.5-6.1-3.1-6.1-3.4 0-.9 10.7-5.5 17-7.2 4.7-1.3 12.4-2.6 24.5-4 7.1-.9 43.1-.6 52.6.4zm-89.5 19.4c17.8 8.8 30.5 30.8 30.6 53 .1 12-2.8 20-10.1 27.8-5.9 6.3-10.3 8.2-19.7 8.2-7.3 0-8.8-.4-15.6-3.8-13.8-6.8-26-23.1-29.8-39.7-2.7-11.7-1-28.1 3.8-35.1 7.5-11.2 15-15.3 26.7-14.5 5.3.4 8.7 1.4 14.1 4.1zm148.1-3c9.7 2.9 17.4 12.2 20.3 24.4 1.8 7.6.8 22-2 30-5.4 15.3-16.2 28.2-28.5 34.1-6.1 3-8 3.4-15 3.5-7.1 0-8.6-.3-13.5-3.1-24.9-14.1-21.3-60.1 6.4-81 11.5-8.7 21.4-11.1 32.3-7.9z"/></svg>