<svg xmlns="http://www.w3.org/2000/svg">
<symbol id="facebook" viewBox="0 0 512 512"> <path fill="currentColor" fill-rule="evenodd" clip-rule="evenodd" d="M288 192v-38.1c0-17.2 3.8-25.9 30.5-25.9H352V64h-55.9c-68.5 0-91.1 31.4-91.1 85.3V192h-45v64h45v192h83V256h56.4l7.6-64h-64z"/> </symbol>
<symbol id="github" viewBox="0 0 512 512"> <path fill="currentColor" fill-rule="evenodd" clip-rule="evenodd" d="M256 32C132.3 32 32 134.8 32 261.7c0 101.5 64.2 187.5 153.2 217.9 11.2 2.1 15.3-5 15.3-11.1 0-5.5-.2-19.9-.3-39.1-62.3 13.9-75.5-30.8-75.5-30.8-10.2-26.5-24.9-33.6-24.9-33.6-20.3-14.3 1.5-14 1.5-14 22.5 1.6 34.3 23.7 34.3 23.7 20 35.1 52.4 25 65.2 19.1 2-14.8 7.8-25 14.2-30.7-49.7-5.8-102-25.5-102-113.5 0-25.1 8.7-45.6 23-61.6-2.3-5.8-10-29.2 2.2-60.8 0 0 18.8-6.2 61.6 23.5 17.9-5.1 37-7.6 56.1-7.7 19 .1 38.2 2.6 56.1 7.7 42.8-29.7 61.5-23.5 61.5-23.5 12.2 31.6 4.5 55 2.2 60.8 14.3 16.1 23 36.6 23 61.6 0 88.2-52.4 107.6-102.3 113.3 8 7.1 15.2 21.1 15.2 42.5 0 30.7-.3 55.5-.3 63 0 6.1 4 13.3 15.4 11C415.9 449.1 480 363.1 480 261.7 480 134.8 379.7 32 256 32z"/> </symbol>
<symbol id="gitlab" viewBox="0 0 512 512"> <path fill="currentColor" fill-rule="evenodd" clip-rule="evenodd" d="M120.548 48.424c-2.785-7.996-14.104-7.996-16.979 0L52.813 205.457h118.583c-.09 0-50.848-157.033-50.848-157.033zM26.849 284.512c-2.336 7.188.271 15.183 6.379 19.765l222.703 165.296L52.722 205.457l-25.873 79.055zm144.457-79.055l84.715 264.115 84.715-264.115h-169.43zm313.883 79.055l-25.872-79.055-203.296 264.115 222.703-165.296c6.196-4.582 8.712-12.577 6.465-19.764zM408.471 48.424c-2.785-7.996-14.104-7.996-16.979 0l-50.848 157.033h118.584L408.471 48.424z"/> </symbol>
<symbol id="instagram" viewBox="0 0 56.7 56.7"> <path fill="currentColor" fill-rule="evenodd" clip-rule="evenodd" d="M28.2 16.7c-7 0-12.8 5.7-12.8 12.8s5.7 12.8 12.8 12.8S41 36.5 41 29.5s-5.8-12.8-12.8-12.8zm0 21c-4.5 0-8.2-3.7-8.2-8.2s3.7-8.2 8.2-8.2 8.2 3.7 8.2 8.2-3.7 8.2-8.2 8.2z"/> <circle fill="currentColor" fill-rule="evenodd" clip-rule="evenodd" cx="41.5" cy="16.4" r="2.9"/> <path fill="currentColor" fill-rule="evenodd" clip-rule="evenodd" d="M49 8.9c-2.6-2.7-6.3-4.1-10.5-4.1H17.9c-8.7 0-14.5 5.8-14.5 14.5v20.5c0 4.3 1.4 8 4.2 10.7 2.7 2.6 6.3 3.9 10.4 3.9h20.4c4.3 0 7.9-1.4 10.5-3.9 2.7-2.6 4.1-6.3 4.1-10.6V19.3c0-4.2-1.4-7.8-4-10.4zm-.4 31c0 3.1-1.1 5.6-2.9 7.3s-4.3 2.6-7.3 2.6H18c-3 0-5.5-.9-7.3-2.6C8.9 45.4 8 42.9 8 39.8V19.3c0-3 .9-5.5 2.7-7.3 1.7-1.7 4.3-2.6 7.3-2.6h20.6c3 0 5.5.9 7.3 2.7 1.7 1.8 2.7 4.3 2.7 7.2v20.6z"/> </symbol>
<symbol id="linkedin" viewBox="0 0 512 512"> <path fill="currentColor" fill-rule="evenodd" clip-rule="evenodd" d="M417.2 64H96.8C79.3 64 64 76.6 64 93.9V415c0 17.4 15.3 32.9 32.8 32.9h320.3c17.6 0 30.8-15.6 30.8-32.9V93.9C448 76.6 434.7 64 417.2 64zM183 384h-55V213h55v171zm-25.6-197h-.4c-17.6 0-29-13.1-29-29.5 0-16.7 11.7-29.5 29.7-29.5s29 12.7 29.4 29.5c0 16.4-11.4 29.5-29.7 29.5zM384 384h-55v-93.5c0-22.4-8-37.7-27.9-37.7-15.2 0-24.2 10.3-28.2 20.3-1.5 3.6-1.9 8.5-1.9 13.5V384h-55V213h55v23.8c8-11.4 20.5-27.8 49.6-27.8 36.1 0 63.4 23.8 63.4 75.1V384z"/> </symbol>
<symbol id="twitter" viewBox="0 0 512 512"> <path fill="currentColor" fill-rule="evenodd" clip-rule="evenodd" d="M492 109.5c-17.4 7.7-36 12.9-55.6 15.3 20-12 35.4-31 42.6-53.6-18.7 11.1-39.4 19.2-61.5 23.5C399.8 75.8 374.6 64 346.8 64c-53.5 0-96.8 43.4-96.8 96.9 0 7.6.8 15 2.5 22.1-80.5-4-151.9-42.6-199.6-101.3-8.3 14.3-13.1 31-13.1 48.7 0 33.6 17.1 63.3 43.1 80.7C67 210.7 52 206.3 39 199v1.2c0 47 33.4 86.1 77.7 95-8.1 2.2-16.7 3.4-25.5 3.4-6.2 0-12.3-.6-18.2-1.8 12.3 38.5 48.1 66.5 90.5 67.3-33.1 26-74.9 41.5-120.3 41.5-7.8 0-15.5-.5-23.1-1.4C62.9 432 113.8 448 168.4 448 346.6 448 444 300.3 444 172.2c0-4.2-.1-8.4-.3-12.5 18.9-13.7 35.3-30.8 48.3-50.2z"/> </symbol>
<symbol id="web" viewBox="0 0 512 512"> <path fill="currentColor" fill-rule="evenodd" clip-rule="evenodd" d="M256 48h-.2H255.5C140.8 48.3 48 141.3 48 256s92.8 207.7 207.5 208h.5c114.9 0 208-93.1 208-208S370.9 48 256 48zm8.3 124.5c22.1-.6 43.5-3.5 64.2-8.5 6.2 24.5 10.1 52.8 10.7 83.8h-74.9v-75.3zm0-16.7V66c22.4 6.2 45.2 36.1 59.6 82-19.2 4.6-39.1 7.2-59.6 7.8zm-16.6-90v90.1c-20.7-.6-40.8-3.3-60.1-8 14.6-46.2 37.5-76.3 60.1-82.1zm0 106.7v75.2h-75.4c.6-31 4.5-59.3 10.7-83.8 20.8 5 42.5 8 64.7 8.6zm-92.2 75.2H64.9c1.8-42.8 17.8-82 43.3-113 18.5 10.2 38.2 18.6 58.8 24.8-6.8 26.5-10.8 56.4-11.5 88.2zm0 16.6c.6 31.7 4.6 61.7 11.4 88.2-20.6 6.3-40.2 14.6-58.8 24.8-25.5-31-41.4-70.2-43.3-113h90.7zm16.8 0h75.4v75.1c-22.2.6-43.9 3.6-64.7 8.7-6.2-24.5-10.1-52.8-10.7-83.8zm75.4 91.8v90.2c-22.6-5.9-45.5-35.9-60.1-82.1 19.3-4.8 39.4-7.5 60.1-8.1zm16.6 89.9v-90c20.5.6 40.4 3.3 59.7 7.9-14.5 46-37.2 75.9-59.7 82.1zm0-106.6v-75.1h74.9c-.6 30.9-4.5 59.2-10.7 83.7-20.7-5-42.1-8-64.2-8.6zm91.6-75.1h91.2c-1.8 42.8-17.8 81.9-43.3 113-18.7-10.3-38.5-18.7-59.3-25 6.8-26.5 10.8-56.3 11.4-88zm0-16.6c-.6-31.7-4.6-61.6-11.3-88.1 20.8-6.3 40.6-14.7 59.2-24.9 25.5 31 41.5 70.2 43.3 113.1h-91.2zm36.5-125.8c-16.6 8.8-34 16.1-52.3 21.6-9.7-31.3-23.4-56.8-39.5-73.6 35.4 8.5 67 26.9 91.8 52zM210.8 70.1c-16.1 16.7-29.7 42.2-39.3 73.3-18.1-5.5-35.4-12.7-51.8-21.5 24.5-25 55.9-43.3 91.1-51.8zM119.6 390c16.4-8.8 33.8-16 51.8-21.5 9.7 31.2 23.3 56.6 39.4 73.4-35.2-8.5-66.6-26.8-91.2-51.9zm181 52.1c16.2-16.8 29.8-42.3 39.6-73.7 18.3 5.5 35.7 12.8 52.3 21.6-24.8 25.2-56.5 43.6-91.9 52.1z"/> </symbol>
<symbol id="youtube" viewBox="0 0 512 512"> <path fill="currentColor" fill-rule="evenodd" clip-rule="evenodd" d="M508.6 148.8c0-45-33.1-81.2-74-81.2C379.2 65 322.7 64 265 64h-18c-57.6 0-114.2 1-169.6 3.6C36.6 67.6 3.5 104 3.5 149 1 184.6-.1 220.2 0 255.8c-.1 35.6 1 71.2 3.4 106.9 0 45 33.1 81.5 73.9 81.5 58.2 2.7 117.9 3.9 178.6 3.8 60.8.2 120.3-1 178.6-3.8 40.9 0 74-36.5 74-81.5 2.4-35.7 3.5-71.3 3.4-107 .2-35.6-.9-71.2-3.3-106.9zM207 353.9V157.4l145 98.2-145 98.3z"/> </symbol>
</svg>